<?xml version="1.0" encoding="utf-8"?>
<!-- Generator: Adobe Illustrator 16.0.3, SVG Export Plug-In . SVG Version: 6.00 Build 0)  -->
<!DOCTYPE svg PUBLIC "-//W3C//DTD SVG 1.1//EN" "http://www.w3.org/Graphics/SVG/1.1/DTD/svg11.dtd">
<svg version="1.1" xmlns="http://www.w3.org/2000/svg" xmlns:xlink="http://www.w3.org/1999/xlink" x="0px" y="0px"
	 width="353.302px" height="317.528px" viewBox="0 0 353.302 317.528" enable-background="new 0 0 353.302 317.528"
	 xml:space="preserve">
<g id="Layer_1">
	<g>
		<path fill="#E4CEAB" d="M345.017,87.075c0.18,1.56,0.27,3.14,0.27,4.75c0,18.87-12.549,34.96-30.189,41.23v170.568H44.027V133.045
			c-17.64-6.26-30.19-22.35-30.19-41.22c0-1.61,0.09-3.19,0.27-4.75c-0.18-1.03-0.27-2.07-0.27-3.11c0-30.4,42.14-69.5,165.73-69.5
			c125.469,0,165.719,39.1,165.719,69.5C345.286,85.005,345.196,86.045,345.017,87.075z"/>
		<g>
			<path fill="#BE894A" d="M346.029,87.104c0.197,1.186,0.419,2.344,0.524,3.615l0.096,0.968l0.053,0.961
				c0.039,0.609,0.062,1.237,0.056,1.901c0.018,1.315-0.038,2.58-0.146,3.874c-0.1,1.288-0.272,2.572-0.489,3.854
				c-0.215,1.282-0.526,2.546-0.858,3.809c-0.358,1.254-0.754,2.502-1.215,3.729c-0.464,1.225-0.968,2.441-1.54,3.626
				c-0.561,1.191-1.181,2.357-1.853,3.495c-0.661,1.145-1.388,2.252-2.146,3.341c-0.761,1.087-1.582,2.132-2.438,3.152
				c-0.869,1.007-1.766,1.995-2.711,2.937c-0.946,0.94-1.924,1.855-2.947,2.718c-4.075,3.478-8.757,6.276-13.77,8.328l3.075-4.357
				l0.551,10.661l0.51,10.66c0.327,7.107,0.629,14.214,0.888,21.321c0.293,7.106,0.503,14.214,0.737,21.321
				c0.25,7.106,0.393,14.214,0.594,21.32c0.198,7.107,0.304,14.214,0.46,21.321c0.165,7.106,0.218,14.214,0.332,21.321l0.131,10.66
				l0.084,10.66l0.083,10.661l0.006,10.66c0.003,4.967-4.021,8.996-8.989,8.998h-0.01c-5.647,0.023-11.295-0.061-16.942-0.109
				c-5.646-0.043-11.294-0.195-16.941-0.289c-5.647-0.16-11.295-0.283-16.941-0.486c-5.647-0.191-11.295-0.395-16.942-0.639
				l-16.941-0.764l-16.942-0.797c-11.294-0.537-22.589-1.088-33.884-1.529c-11.294-0.441-22.589-0.801-33.883-1.027
				c-5.647-0.143-11.295-0.174-16.942-0.268l-16.942-0.09l-16.942,0.066c-5.647,0.07-11.294,0.09-16.942,0.197
				c-11.294,0.172-22.589,0.428-33.884,0.809c-2.171,0.074-3.991-1.627-4.064-3.799v-0.004l-0.009-0.27
				c-0.231-7.107-0.419-14.215-0.723-21.322l-0.846-21.322l-1.727-42.645c-0.151-3.554-0.238-7.107-0.36-10.661l-0.341-10.661
				l-0.325-10.661l-0.264-10.661l-0.772-42.644l6.277,8.888c-1.395-0.486-2.778-1.011-4.138-1.595
				c-1.357-0.591-2.699-1.223-4.01-1.916s-2.603-1.429-3.856-2.228c-1.261-0.789-2.488-1.634-3.679-2.531
				c-1.198-0.887-2.353-1.837-3.477-2.823c-1.124-0.987-2.201-2.03-3.25-3.103c-1.035-1.088-2.039-2.208-2.989-3.377
				c-0.947-1.171-1.861-2.375-2.709-3.627c-0.857-1.245-1.662-2.532-2.404-3.857c-0.754-1.318-1.438-2.68-2.074-4.065
				c-0.633-1.387-1.196-2.808-1.715-4.246c-0.497-1.446-0.951-2.909-1.329-4.394c-0.375-1.486-0.698-2.987-0.938-4.501
				c-0.248-1.513-0.436-3.038-0.538-4.567c-0.065-0.764-0.101-1.529-0.118-2.294L3.63,92.236l-0.008-0.287l0.003-0.545l0.014-0.926
				l0.014-0.925l0.01-0.482l0.04-0.635l0.19-2.54l0.086,2.952c-0.124-0.797-0.236-1.599-0.335-2.4
				c-0.058-0.805-0.098-1.614-0.128-2.422l0.017-1.822c0.034-0.739,0.069-1.531,0.129-2.226c0.226-2.676,0.694-5.309,1.365-7.854
				c1.347-5.094,3.485-9.835,6.112-14.091c5.255-8.563,12.286-15.227,19.677-20.709c7.432-5.475,15.38-9.758,23.479-13.281
				c8.1-3.532,16.364-6.36,24.703-8.603c8.334-2.264,16.714-4.075,25.122-5.462c8.408-1.373,16.825-2.409,25.237-3.16
				c8.411-0.78,16.823-1.177,25.214-1.427c8.411-0.249,16.729-0.233,25.172-0.047l6.184,0.174l6.308,0.246
				c4.179,0.206,8.356,0.44,12.533,0.747c8.354,0.593,16.703,1.396,25.028,2.517c4.163,0.542,8.321,1.166,12.469,1.859
				c4.145,0.729,8.282,1.494,12.404,2.376c8.245,1.746,16.437,3.838,24.515,6.381c8.068,2.573,16.001,5.68,23.672,9.404
				c3.832,1.87,7.596,3.902,11.247,6.143c3.633,2.274,7.151,4.751,10.499,7.458c6.656,5.429,12.69,11.891,16.795,19.575
				c2.055,3.818,3.627,7.92,4.453,12.165c0.418,2.119,0.662,4.267,0.718,6.411c0.015,0.536,0.005,1.073,0.007,1.607l-0.072,1.653
				l-0.179,1.539L346.029,87.104z M344.031,86.903l0.076-1.408l-0.041-1.544l-0.138-1.433l-0.199-1.473
				c-0.307-1.955-0.784-3.874-1.41-5.734c-1.27-3.716-3.051-7.228-5.3-10.422c-4.495-6.4-10.481-11.643-17.029-15.977
				c-6.602-4.295-13.77-7.744-21.18-10.605c-7.42-2.854-15.108-5.066-22.896-6.902c-7.787-1.849-15.694-3.276-23.661-4.373
				c-7.97-1.091-15.994-1.868-24.042-2.453c-8.049-0.574-16.13-0.885-24.218-1.053c-4.044-0.083-8.094-0.096-12.143-0.082
				l-6.036,0.042l-6.161,0.104c-8.017,0.184-16.161,0.552-24.192,1.063c-8.05,0.517-16.066,1.265-24.026,2.205
				c-7.962,0.933-15.863,2.133-23.664,3.63c-3.894,0.771-7.775,1.56-11.618,2.454c-3.839,0.904-7.646,1.891-11.405,2.977
				c-7.512,2.187-14.85,4.731-21.835,7.791c-6.976,3.068-13.577,6.69-19.465,10.9c-5.855,4.225-10.922,9.173-14.422,14.596
				c-1.755,2.707-3.063,5.539-3.885,8.387c-0.409,1.424-0.691,2.854-0.844,4.275l-0.085,0.853l-0.052,1.263
				c0.016,0.22,0.015,0.439,0.008,0.662c0.034,0.218,0.056,0.437,0.065,0.66l0.1,2.375c0.008,0.186,0.001,0.395-0.014,0.576
				c-0.035,0.383-0.077,0.766-0.127,1.148l-0.039,0.288l-0.021,0.443l-0.039,0.925l-0.039,0.925l-0.005,0.116l0,0.014
				c0.008-0.575,0.002-0.153,0.004-0.278v0.022l0,0.044l0.001,0.175l0.002,0.352c-0.005,0.469,0.002,0.937,0.032,1.403
				c0.032,0.936,0.123,1.867,0.248,2.792c0.118,0.928,0.292,1.847,0.493,2.761c0.204,0.914,0.46,1.815,0.735,2.713
				c0.298,0.891,0.616,1.777,0.985,2.646c0.373,0.867,0.764,1.729,1.212,2.567c0.436,0.843,0.916,1.668,1.434,2.471
				c0.508,0.809,1.067,1.589,1.646,2.357c0.583,0.765,1.206,1.502,1.847,2.226c0.657,0.71,1.33,1.409,2.042,2.073
				c0.712,0.663,1.443,1.309,2.212,1.913c0.76,0.613,1.55,1.195,2.367,1.739c0.809,0.555,1.65,1.066,2.505,1.554
				s1.736,0.934,2.628,1.359c0.896,0.417,1.811,0.796,2.735,1.155l0.416,0.161c3.685,1.429,5.921,4.994,5.862,8.728l-0.772,42.644
				l-0.264,10.661l-0.325,10.661l-0.341,10.661c-0.122,3.554-0.208,7.107-0.36,10.661l-1.727,42.645l-0.846,21.322
				c-0.304,7.107-0.491,14.215-0.723,21.322l-4.073-4.073c11.294,0.382,22.589,0.637,33.884,0.809
				c5.647,0.108,11.294,0.128,16.942,0.197l16.942,0.067l16.942-0.091c5.647-0.093,11.294-0.124,16.942-0.267
				c11.294-0.228,22.589-0.586,33.883-1.028c11.295-0.44,22.59-0.991,33.884-1.529l16.942-0.796l16.941-0.764
				c5.647-0.245,11.295-0.448,16.942-0.639c5.646-0.204,11.294-0.327,16.941-0.487c5.647-0.093,11.295-0.245,16.941-0.289
				c5.647-0.049,11.295-0.133,16.942-0.109l-8.999,8.999l0.006-10.66l0.083-10.661l0.084-10.66l0.131-10.66
				c0.114-7.107,0.167-14.215,0.332-21.321c0.156-7.107,0.262-14.214,0.46-21.321c0.201-7.106,0.344-14.214,0.594-21.32
				c0.234-7.107,0.444-14.215,0.737-21.321c0.259-7.107,0.561-14.214,0.888-21.321l0.51-10.66l0.551-10.661l0.023-0.452
				c0.096-1.862,1.367-3.389,3.052-3.906c1.068-0.325,2.131-0.677,3.179-1.076c1.044-0.405,2.08-0.84,3.096-1.324
				c1.015-0.483,2.019-0.999,2.993-1.567c0.981-0.557,1.946-1.151,2.88-1.791c0.942-0.63,1.852-1.311,2.741-2.019
				c0.89-0.709,1.743-1.464,2.58-2.241c0.821-0.792,1.627-1.604,2.399-2.451c0.767-0.852,1.514-1.727,2.208-2.645
				c0.704-0.911,1.369-1.856,1.987-2.833c0.63-0.971,1.202-1.979,1.746-3.006c0.541-1.029,1.026-2.088,1.485-3.163
				c0.44-1.082,0.84-2.183,1.206-3.3c0.358-1.119,0.684-2.254,0.941-3.409c0.266-1.146,0.49-2.337,0.641-3.486
				c0.09-0.567,0.156-1.172,0.206-1.797l0.079-0.889l0.043-0.883c0.1-1.16,0.065-2.422,0.062-3.657c0-0.029,0-0.059,0.002-0.088
				L344.031,86.903z"/>
		</g>
	</g>
</g>
<g id="Layer_2">
</g>
</svg>
